<svg xmlns="http://www.w3.org/2000/svg" viewBox="0 0 24 24" fill="none"><g transform="scale(0.6)"><path d="M22.5 27.5C22.5 32.325 18.575 36.25 13.75 36.25V33.75C17.1962 33.75 20 30.9463 20 27.5C20 24.0537 17.1962 21.25 13.75 21.25C12.5353 21.2516 11.3474 21.6071 10.3315 22.2731C9.31566 22.9391 8.51588 23.8867 8.03 25H11.25V27.5H3.75V20H6.25V23.0163C7.78125 20.4662 10.565 18.75 13.75 18.75C18.575 18.75 22.5 22.675 22.5 27.5ZM35 6.25V33.75C35 35.1287 33.8787 36.25 32.5 36.25H25V33.75H32.5V28.75H25V26.25H32.5V21.25H25V18.75H32.5V13.75H5V6.25C5 4.87125 6.1225 3.75 7.5 3.75H32.5C33.8787 3.75 35 4.87125 35 6.25ZM32.5 6.25H7.5V11.25H32.5V6.25Z" fill="currentColor"/></g></svg>
